<svg xmlns="http://www.w3.org/2000/svg" width="370" height="48" fill="none" viewBox="0 0 370 48"><path fill="#0E7EA3" d="M3 11C3 6.58172 6.58172 3 11 3H124V45H11C6.58172 45 3 41.4183 3 37V11Z"/><rect width="77" height="13" x="25" y="17.5" fill="#fff" rx="2"/><line x1="123.5" x2="123.5" y1="45.066" y2="3" stroke="#3E98B5"/><rect width="121" height="42" fill="#0E7EA3" transform="translate(124 3)"/><rect width="77" height="13" x="146" y="17.5" fill="#fff" rx="2"/><line x1="244.5" x2="244.5" y1="45.066" y2="3" stroke="#3E98B5"/><path fill="#0E7EA3" d="M245 3H358C362.418 3 366 6.58172 366 11V37C366 41.4183 362.418 45 358 45H245V3Z"/><rect width="77" height="13" x="267" y="17.5" fill="#fff" rx="2"/></svg>